<svg xmlns="http://www.w3.org/2000/svg" xmlns:xlink="http://www.w3.org/1999/xlink" viewBox="0 0 32 32">
    <defs>
        <path id="a" d="M0 0h13.474v20.211H0z"/>
    </defs>
    <g fill="none" fill-rule="evenodd">
        <rect width="32" height="32" fill="#0091FF" rx="2"/>
        <g transform="translate(9.263 5.053)">
            <mask id="b" fill="#fff">
                <use xlink:href="#a"/>
            </mask>
            <path fill="#FFF" d="M3.357.66c.003-.24.337-.301.433-.08.364.837 1.048 1.536.753 2.654-.232.886.186 1.81.6 2.614.328.642 1.279.847 2.084.623.256-.071.503-.175.76-.239 2.319-.571 3.773.34 4.314 2.756.289 1.29.432 2.641.45 4.004.016 1.123.245 2.287.59 3.393.071.226.243.45.032.668-.192.2-.441.164-.685.086-.297-.095-.44-.307-.408-.598.1-.922-.069-1.82-.181-2.73-.17-1.369-1.03-2.39-1.75-3.475-.25-.378-.647-.205-.886.12-.553.752-.807 1.578-.363 2.453.25.492.26.939.1 1.443-.132.414-.193.85-.283 1.276-.077.361-.234.676-.619.783-.247.07-.575.158-.723-.125-.156-.3.175-.387.364-.517.528-.362.708-1.229.404-2.082-.116-.327-.284-.639-.448-.948-.107-.2-.17-.5-.498-.426-.332.076-.53.311-.567.651-.092.845-.178 1.69-.265 2.535-.137 1.343-.402 2.675-.338 4.034.013.277-.049.531-.387.596-.348.066-.718.18-1.02-.081-.243-.211-.114-.483-.015-.729.713-1.763.683-3.577.373-5.406-.075-.448-1.264-.953-1.61-.69-.22.17-.133.445-.128.678.03 1.37.253 2.734.158 4.11-.061.888-.55 1.293-1.335 1.067-.325-.094-.495-.3-.245-.57 1.237-1.338.559-2.747.153-4.122-.325-1.102-.714-2.182-1.225-3.23C.464 10.17.66 9.046.77 8 .885 6.919.756 5.917.333 4.936c-.23-.532-.388-1.061-.257-1.649.037-.161 0-.346-.035-.514C-.15 1.857.346.63 1.123.09c.249-.173.363-.08.417.164.024.105.023.217.02.326-.01.467.098.815.685.825.563.01 1.107.048 1.112-.74V.662" mask="url(#b)"/>
        </g>
    </g>
</svg>